:FULLY-SPECIFIED
:FORCE-ALL-JOINTS-BE-3DOF
:DEGREES
136
root 7.62727 16.7386 -26.2937 -6.02027 17.414 -0.592786
lfemur -10.7163 14.8837 -16.9078
ltibia 31.0125 -0 0
lfoot -10.7682 -4.97069 0.278912
ltoes 33.3359 -0 0
rfemur -53.4587 -12.2995 4.30379
rtibia 56.5345 -0 0
rfoot 8.83287 -0.341604 -0.118094
rtoes 4.74252 -0 0
lowerback 11.1742 -3.36399 -2.44259
upperback 3.39251 -4.63832 0.674265
thorax -2.47197 -2.33597 2.52361
lowerneck -11.4048 -3.61622 0.127079
upperneck 1.19713 -4.92731 2.30051
head 2.46134 -2.3772 0.447236
lclavicle -3.77994e-14 4.32478e-15 2.85652e-30
lhumerus -40.8748 -22.5226 97.815
lradius 49.4085 -0 0
lwrist 11.951 0 0
lhand 16.0089 11.8787 0.903965
lfingers 7.12502 -0 0
lthumb 40.5728 35.0477 0.14339
rclavicle -3.77994e-14 4.32478e-15 2.85652e-30
rhumerus -44.9125 -8.06701 -61.68
rradius 72.204 -0 0
rwrist -4.05014 0 0
rhand -4.12088 -17.2801 0.222989
rfingers 7.12502 -0 0
rthumb 21.6057 -45.6512 0.320697
137
root 7.59659 16.7183 -26.2747 -5.7177 17.9533 -0.591839
lfemur -11.2006 15.468 -16.9016
ltibia 31.2823 -0 0
lfoot -10.612 -4.38186 0.291779
ltoes 33.2762 -0 0
rfemur -52.5521 -12.2064 4.01589
rtibia 57.1812 -0 0
rfoot 8.87695 -1.22576 -0.123563
rtoes 6.12001 -0 0
lowerback 10.879 -3.48017 -2.44193
upperback 3.27532 -4.78797 0.60089
thorax -2.43178 -2.41146 2.44259
lowerneck -11.355 -3.72982 0.0441398
upperneck 1.22306 -5.07266 2.41091
head 2.47088 -2.44666 0.489526
lclavicle -3.52467e-14 3.9563e-15 2.98785e-30
lhumerus -40.9917 -23.1768 98.2811
lradius 49.4842 -0 0
lwrist 11.9773 0 0
lhand 16.7485 12.282 0.945802
lfingers 7.12502 -0 0
lthumb 41.2508 35.1174 0.150011
rclavicle -3.52467e-14 3.9563e-15 2.98785e-30
rhumerus -45.1721 -8.47798 -62.1616
rradius 72.9283 -0 0
rwrist -4.52187 0 0
rhand -4.78428 -17.391 0.233284
rfingers 7.12502 -0 0
rthumb 20.9674 -45.8168 0.335501
138
root 7.5659 16.6981 -26.2557 -5.41417 18.4927 -0.587886
lfemur -11.6862 16.0523 -16.9005
ltibia 31.5521 -0 0
lfoot -10.4558 -3.79299 0.303042
ltoes 33.2166 -0 0
rfemur -51.6462 -12.1088 3.72963
rtibia 57.8279 -0 0
rfoot 8.9211 -2.10993 -0.128351
rtoes 7.4975 -0 0
lowerback 10.5838 -3.59635 -2.44068
upperback 3.15828 -4.93778 0.527807
thorax -2.39149 -2.48689 2.36151
lowerneck -11.3052 -3.84335 -0.0389088
upperneck 1.24871 -5.21807 2.52128
head 2.48037 -2.51612 0.531808
lclavicle -3.2694e-14 3.58782e-15 3.10277e-30
lhumerus -41.1151 -23.8302 98.751
lradius 49.5599 -0 0
lwrist 12.0037 0 0
lhand 17.4884 12.6858 0.982428
lfingers 7.12502 -0 0
lthumb 41.9289 35.1872 0.155806
rclavicle -3.2694e-14 3.58782e-15 3.10277e-30
rhumerus -45.4286 -8.89108 -62.6419
rradius 73.6526 -0 0
rwrist -4.9936 0 0
rhand -5.4477 -17.5019 0.242295
rfingers 7.12502 -0 0
rthumb 20.329 -45.9826 0.348459
139
root 7.53522 16.6778 -26.2368 -5.10963 19.032 -0.580898
lfemur -12.1732 16.6367 -16.9046
ltibia 31.8218 -0 0
lfoot -10.2994 -3.2041 0.312698
ltoes 33.1569 -0 0
rfemur -50.7412 -12.0068 3.44509
rtibia 58.4746 -0 0
rfoot 8.96533 -2.99409 -0.132458
rtoes 8.87498 -0 0
lowerback 10.2886 -3.71253 -2.43882
upperback 3.04141 -5.08773 0.455014
thorax -2.35109 -2.56227 2.28036
lowerneck -11.2551 -3.95682 -0.122068
upperneck 1.27408 -5.36353 2.6316
head 2.48981 -2.5856 0.57408
lclavicle -3.01413e-14 3.21934e-15 3.20127e-30
lhumerus -41.2449 -24.4825 99.2249
lradius 49.6356 -0 0
lwrist 12.0301 0 0
lhand 18.2285 13.0901 1.01384
lfingers 7.12502 -0 0
lthumb 42.607 35.2571 0.160776
rclavicle -3.01413e-14 3.21934e-15 3.20127e-30
rhumerus -45.6818 -9.3063 -63.1209
rradius 74.3769 -0 0
rwrist -5.46534 0 0
rhand -6.11113 -17.6129 0.250022
rfingers 7.12502 -0 0
rthumb 19.6906 -46.1485 0.359569
140
root 7.50454 16.6575 -26.2178 -4.80402 19.5713 -0.570844
lfemur -12.6618 17.2209 -16.9139
ltibia 32.0916 -0 0
lfoot -10.143 -2.61518 0.320746
ltoes 33.0973 -0 0
rfemur -49.8371 -11.9004 3.16234
rtibia 59.1213 -0 0
rfoot 9.00961 -3.87826 -0.135881
rtoes 10.2525 -0 0
lowerback 9.99329 -3.82869 -2.43637
upperback 2.92471 -5.23783 0.382511
thorax -2.31058 -2.63759 2.19916
lowerneck -11.2049 -4.07021 -0.205338
upperneck 1.29918 -5.50903 2.74188
head 2.4992 -2.65508 0.616344
lclavicle -2.75886e-14 2.85087e-15 3.28335e-30
lhumerus -41.3814 -25.1338 99.7028
lradius 49.7113 -0 0
lwrist 12.0565 0 0
lhand 18.9688 13.4947 1.04002
lfingers 7.12502 -0 0
lthumb 43.2851 35.327 0.164917
rclavicle -2.75886e-14 2.85087e-15 3.28335e-30
rhumerus -45.9318 -9.72358 -63.5985
rradius 75.1011 -0 0
rwrist -5.93707 0 0
rhand -6.77458 -17.724 0.256462
rfingers 7.12502 -0 0
rthumb 19.0522 -46.3145 0.368829
141
root 7.47385 16.6372 -26.1989 -4.49727 20.1105 -0.557694
lfemur -13.1521 17.8051 -16.9285
ltibia 32.3613 -0 0
lfoot -9.98643 -2.02624 0.327185
ltoes 33.0376 -0 0
rfemur -48.9339 -11.7897 2.88146
rtibia 59.768 -0 0
rfoot 9.05394 -4.76244 -0.138621
rtoes 11.63 -0 0
lowerback 9.69796 -3.94484 -2.43331
upperback 2.80817 -5.38808 0.310298
thorax -2.26996 -2.71285 2.1179
lowerneck -11.1544 -4.18352 -0.288719
upperneck 1.32401 -5.65458 2.85213
head 2.50854 -2.72457 0.658599
lclavicle -2.50359e-14 2.48239e-15 3.34902e-30
lhumerus -41.5247 -25.7841 100.185
lradius 49.787 -0 0
lwrist 12.0829 0 0
lhand 19.7092 13.8996 1.06098
lfingers 7.12502 -0 0
lthumb 43.9632 35.3969 0.168232
rclavicle -2.50359e-14 2.48239e-15 3.34902e-30
rhumerus -46.1786 -10.1429 -64.075
rradius 75.8254 -0 0
rwrist -6.4088 0 0
rhand -7.43805 -17.8352 0.261616
rfingers 7.12502 -0 0
rthumb 18.4137 -46.4807 0.376239
142
root 7.44316 16.6169 -26.1799 -4.18931 20.6496 -0.541412
lfemur -13.6442 18.3892 -16.9484
ltibia 32.6311 -0 0
lfoot -9.82984 -1.43728 0.332016
ltoes 32.9779 -0 0
rfemur -48.0316 -11.6746 2.60251
rtibia 60.4146 -0 0
rfoot 9.09831 -5.64661 -0.140676
rtoes 13.0074 -0 0
lowerback 9.40258 -4.06097 -2.42966
upperback 2.69179 -5.53848 0.238374
thorax -2.22923 -2.78806 2.03659
lowerneck -11.1039 -4.29676 -0.372213
upperneck 1.34856 -5.80018 2.96234
head 2.51783 -2.79406 0.700845
lclavicle -2.24833e-14 2.11391e-15 3.39827e-30
lhumerus -41.6748 -26.4333 100.672
lradius 49.8627 -0 0
lwrist 12.1093 0 0
lhand 20.4499 14.3048 1.0767
lfingers 7.12502 -0 0
lthumb 44.6413 35.4669 0.170718
rclavicle -2.24833e-14 2.11391e-15 3.39827e-30
rhumerus -46.4221 -10.5642 -64.5502
rradius 76.5497 -0 0
rwrist -6.88054 0 0
rhand -8.10152 -17.9464 0.265481
rfingers 7.12502 -0 0
rthumb 17.7753 -46.6469 0.381798
143
root 7.41248 16.5966 -26.1609 -3.88007 21.1887 -0.521964
lfemur -14.1382 18.973 -16.9737
ltibia 32.9008 -0 0
lfoot -9.67321 -0.848312 0.335236
ltoes 32.9183 -0 0
rfemur -47.1303 -11.5553 2.32555
rtibia 61.0613 -0 0
rfoot 9.1427 -6.53079 -0.142047
rtoes 14.3849 -0 0
lowerback 9.10716 -4.17708 -2.4254
upperback 2.57557 -5.68902 0.166739
thorax -2.18839 -2.8632 1.95521
lowerneck -11.0531 -4.40993 -0.455819
upperneck 1.37283 -5.94583 3.07252
head 2.52707 -2.86357 0.743082
lclavicle -1.99306e-14 1.74543e-15 3.4311e-30
lhumerus -41.832 -27.0813 101.163
lradius 49.9384 -0 0
lwrist 12.1357 0 0
lhand 21.1906 14.7102 1.08718
lfingers 7.12502 -0 0
lthumb 45.3194 35.537 0.172375
rclavicle -1.99306e-14 1.74543e-15 3.4311e-30
rhumerus -46.6624 -10.9875 -65.0242
rradius 77.2739 -0 0
rwrist -7.35227 0 0
rhand -8.765 -18.0577 0.268059
rfingers 7.12502 -0 0
rthumb 17.1368 -46.8131 0.385504
144
root 7.38179 16.5764 -26.142 -3.5695 21.7276 -0.499313
lfemur -14.6342 19.5567 -17.0044
ltibia 33.1706 -0 0
lfoot -9.51656 -0.259338 0.336847
ltoes 32.8586 -0 0
rfemur -46.2299 -11.4317 2.05067
rtibia 61.708 -0 0
rfoot 9.18711 -7.41496 -0.142732
rtoes 15.7624 -0 0
lowerback 8.81167 -4.29316 -2.42054
upperback 2.4595 -5.8397 0.0953911
thorax -2.14744 -2.9383 1.87377
lowerneck -11.0022 -4.52303 -0.539539
upperneck 1.39683 -6.09152 3.18267
head 2.53626 -2.93307 0.785311
lclavicle -1.73779e-14 1.37695e-15 3.44752e-30
lhumerus -41.9964 -27.728 101.66
lradius 50.0141 -0 0
lwrist 12.1621 0 0
lhand 21.9313 15.1156 1.09242
lfingers 7.12502 -0 0
lthumb 45.9975 35.607 0.173204
rclavicle -1.73779e-14 1.37695e-15 3.44752e-30
rhumerus -46.8995 -11.4128 -65.4972
rradius 77.9982 -0 0
rwrist -7.824 0 0
rhand -9.42848 -18.169 0.269347
rfingers 7.12502 -0 0
rthumb 16.4983 -46.9794 0.387357
145
root 7.3511 16.5561 -26.123 -3.25751 22.2664 -0.473419
lfemur -15.1324 20.14 -17.0405
ltibia 33.4403 -0 0
lfoot -9.35989 0.329638 0.336847
ltoes 32.799 -0 0
rfemur -45.3306 -11.3039 1.77792
rtibia 62.3547 -0 0
rfoot 9.23152 -8.29914 -0.142732
rtoes 17.1399 -0 0
lowerback 8.51614 -4.40923 -2.41508
upperback 2.3436 -5.99053 0.0243313
thorax -2.10638 -3.01333 1.79228
lowerneck -10.9511 -4.63605 -0.623373
upperneck 1.42055 -6.23726 3.29278
head 2.5454 -3.00259 0.827532
lclavicle -1.48252e-14 1.00847e-15 3.44752e-30
lhumerus -42.1682 -28.3735 102.161
lradius 50.0898 -0 0
lwrist 12.1884 0 0
lhand 22.6721 15.5211 1.09242
lfingers 7.12502 -0 0
lthumb 46.6756 35.677 0.173204
rclavicle -1.48252e-14 1.00847e-15 3.44752e-30
rhumerus -47.1334 -11.8399 -65.969
rradius 78.7225 -0 0
rwrist -8.29574 0 0
rhand -10.092 -18.2803 0.269347
rfingers 7.12502 -0 0
rthumb 15.8598 -47.1457 0.387357
